<?xml version="1.0" encoding="UTF-8"?>
<svg version="1.1" xmlns="http://www.w3.org/2000/svg" width="500" height="500">
<path d="M0 0 C0.90045044 -0.00705963 1.80090088 -0.01411926 2.7286377 -0.02139282 C40.56271231 -0.2507174 40.56271231 -0.2507174 57.20703125 3.203125 C58.69759033 3.50911621 58.69759033 3.50911621 60.21826172 3.82128906 C107.68228121 13.8590854 153.3426059 35.81480051 187.20703125 71.203125 C189.61096189 73.62663162 192.02607707 76.0305083 194.49609375 78.38671875 C234.46213269 116.94926803 260.94591994 177.65455783 262.3840332 233.04077148 C262.41009315 234.7185092 262.43030068 236.39634581 262.4453125 238.07421875 C262.45510635 238.98601898 262.46490021 239.89781921 262.47499084 240.83724976 C262.64659664 260.95688107 262.50766875 280.45312532 258.20703125 300.203125 C257.98208984 301.24678223 257.75714844 302.29043945 257.52539062 303.36572266 C246.90399699 351.31560923 222.98950511 392.81911164 189.20703125 428.203125 C188.25763672 429.21439453 188.25763672 429.21439453 187.2890625 430.24609375 C183.26177257 434.42643983 178.85219201 438.07315886 174.32421875 441.69921875 C172.15777331 443.43943369 170.0230496 445.19473833 167.90234375 446.98828125 C135.63297497 473.97990748 89.64968032 496.39058301 47.21875 498.9921875 C44.82816978 499.15962113 42.49327086 499.41015554 40.11767578 499.70581055 C35.27635448 500.24791009 30.49309827 500.36457767 25.625 500.37109375 C24.2836071 500.37608635 24.2836071 500.37608635 22.91511536 500.38117981 C21.02845773 500.38621418 19.14179129 500.38858922 17.25512695 500.38842773 C14.44010732 500.39058999 11.62549617 500.40871612 8.81054688 500.42773438 C-2.74698967 500.46334828 -14.07645406 499.83264227 -25.55314636 498.46557617 C-27.09452141 498.28496556 -28.63723148 498.11551196 -30.18086243 497.95532227 C-34.19913413 497.53799874 -38.07695841 497.0411503 -42 496.0390625 C-42.90580811 495.80791748 -43.81161621 495.57677246 -44.74487305 495.33862305 C-45.68886963 495.08765869 -46.63286621 494.83669434 -47.60546875 494.578125 C-48.60811768 494.31233643 -49.6107666 494.04654785 -50.64379883 493.77270508 C-86.12841286 484.15056556 -118.42233663 467.54987382 -146.79296875 444.203125 C-147.37965332 443.72085449 -147.96633789 443.23858398 -148.57080078 442.74169922 C-160.87091508 432.56379956 -171.92009149 421.77787401 -181.79296875 409.203125 C-182.66255874 408.13419158 -183.53371843 407.06653367 -184.40625 406 C-216.40875649 366.59077493 -237.58779272 314.35850435 -238.03125 263.2109375 C-238.04104385 262.27548096 -238.05083771 261.34002441 -238.06092834 260.3762207 C-238.23045163 239.98194703 -238.13234983 220.22413149 -233.79296875 200.203125 C-233.58397949 199.19813965 -233.37499023 198.1931543 -233.15966797 197.15771484 C-225.32784587 160.29828542 -208.84825648 124.3126833 -184.79296875 95.203125 C-184.33647949 94.64657227 -183.87999023 94.09001953 -183.40966797 93.51660156 C-178.15151978 87.12083017 -172.7806316 80.93294591 -166.79296875 75.203125 C-164.36946213 72.79919436 -161.96558545 70.38407918 -159.609375 67.9140625 C-119.84713549 26.70467042 -57.07060637 0.29977228 0 0 Z " fill="#0C88EF" transform="translate(237.79296875,-0.203125)"/>
<path d="M0 0 C0.75202698 0.00049347 1.50405396 0.00098694 2.27886963 0.00149536 C19.40450833 0.0355796 36.80581256 0.94866251 53.625 4.3125 C53.625 25.4325 53.625 46.5525 53.625 68.3125 C34.375 68.625 34.375 68.625 28.37792969 68.70043945 C9.77815917 68.94422527 9.77815917 68.94422527 -6.375 77.3125 C-11.99716447 83.38644555 -14.58974432 89.23029333 -14.69384766 97.59326172 C-14.71390869 98.83100342 -14.73396973 100.06874512 -14.75463867 101.34399414 C-14.77167847 103.27359985 -14.77167847 103.27359985 -14.7890625 105.2421875 C-14.81552856 107.03184937 -14.81552856 107.03184937 -14.8425293 108.85766602 C-14.90544255 113.30080865 -14.9517353 117.7441741 -15 122.1875 C-15.12375 132.12875 -15.2475 142.07 -15.375 152.3125 C6.075 152.3125 27.525 152.3125 49.625 152.3125 C48.5 165.8125 48.5 165.8125 47.68530273 170.99902344 C47.5051915 172.15932068 47.32508026 173.31961792 47.13951111 174.51507568 C46.94780838 175.72181946 46.75610565 176.92856323 46.55859375 178.171875 C46.36024429 179.44226624 46.16189484 180.71265747 45.95753479 182.02154541 C45.43687155 185.35598542 44.91115302 188.68960805 44.38427734 192.02307129 C43.84484919 195.44197349 43.31029772 198.86163804 42.77539062 202.28125 C41.73045015 208.95916748 40.67754356 215.63575905 39.625 222.3125 C21.145 222.3125 2.665 222.3125 -16.375 222.3125 C-16.375 280.3925 -16.375 338.4725 -16.375 398.3125 C-27.36039737 403.80519869 -41.75643803 402.65670717 -53.77954102 402.62817383 C-56.54158443 402.62502385 -59.30254178 402.64853455 -62.06445312 402.67382812 C-63.8906237 402.67610356 -65.71679705 402.67680348 -67.54296875 402.67578125 C-68.33325974 402.684991 -69.12355072 402.69420074 -69.93778992 402.70368958 C-79.69391889 402.62875566 -88.46118098 400.79957285 -98.375 399.3125 C-98.375 340.9025 -98.375 282.4925 -98.375 222.3125 C-118.835 222.3125 -139.295 222.3125 -160.375 222.3125 C-160.375 199.2125 -160.375 176.1125 -160.375 152.3125 C-139.915 152.3125 -119.455 152.3125 -98.375 152.3125 C-98.39820313 147.64996094 -98.42140625 142.98742187 -98.4453125 138.18359375 C-98.45555275 135.19856201 -98.46518214 132.21355247 -98.47265625 129.22851562 C-98.48453047 124.50882368 -98.49845069 119.78921062 -98.52587891 115.06958008 C-98.54789268 111.25699574 -98.55962752 107.44449618 -98.56475449 103.6318531 C-98.56839982 102.19008108 -98.57551493 100.74831276 -98.58646011 99.30657768 C-98.78448477 72.09590877 -92.36503238 45.74139402 -72.85498047 25.75292969 C-53.01385778 6.44203826 -27.07789932 -0.12236791 0 0 Z " fill="#FEFEFE" transform="translate(308.375,97.6875)"/>
</svg>
