<?xml version="1.0" encoding="UTF-8"?>
<svg version="1.1" xmlns="http://www.w3.org/2000/svg" width="1599" height="323">
<path d="M0 0 C0.62970703 0.20898926 1.25941406 0.41797852 1.90820312 0.63330078 C16.61381483 5.62617759 29.42083045 13.72053315 41 24 C41.72848145 24.64606201 41.72848145 24.64606201 42.47167969 25.30517578 C53.16331252 34.83288327 63.10999925 44.74048543 72 56 C73.33277086 57.66711649 74.66593724 59.33391714 76 61 C79.88377874 59.70540709 81.25162919 57.30791454 83.5625 54.125 C87.67391517 48.61547548 92.01328272 43.52402277 96.69921875 38.48828125 C98.69652435 36.32820712 100.60543338 34.12452055 102.5 31.875 C117.74885244 14.4679573 139.98143627 0.0373913 163 -4 C194.82147375 -6.09808735 220.87106953 2.33332231 244.88671875 23.28710938 C284.0475684 58.44387215 303.65410284 111.03420427 311 162 C311.16773926 163.13381104 311.16773926 163.13381104 311.33886719 164.29052734 C317.10288694 204.48410991 317.11763677 252.95835318 293.05859375 287.8125 C291.12176115 290.29892306 289.11327534 292.66234215 287 295 C286.37351562 295.70769531 285.74703125 296.41539062 285.1015625 297.14453125 C271.71984143 311.42747027 253.14046709 317.76696518 234 319 C206.48865909 319.52963009 184.58923455 311.1409528 164.66772461 292.0168457 C157.40404307 284.85801916 151.05370836 277.19190653 145 269 C144.49114258 268.31953613 143.98228516 267.63907227 143.45800781 266.93798828 C130.47224537 249.53548779 119.38821777 231.07507203 108.35449219 212.40429688 C103.00610149 203.35638094 97.59649835 194.3489663 92.125 185.375 C84.97557009 173.64614657 77.94765864 161.84940352 71 150 C65.05588149 159.9161883 59.33769994 169.94105668 53.75 180.0625 C47.23568238 191.84898097 40.53522819 203.51578057 33.6953125 215.11669922 C32.00579214 217.99014903 30.32968348 220.87106353 28.65625 223.75390625 C-18.63875087 304.97016237 -18.63875087 304.97016237 -60.6875 316.3125 C-66.12466462 317.64687543 -71.40376908 318.75760205 -77 319 C-77.71542969 319.03996094 -78.43085937 319.07992188 -79.16796875 319.12109375 C-100.66702496 319.73329468 -123.23915067 314.35896011 -139.375 299.5625 C-141.28349775 297.73789899 -143.14197944 295.877232 -145 294 C-145.98419922 293.04867187 -145.98419922 293.04867187 -146.98828125 292.078125 C-165.10797913 273.25030099 -172.07108272 242.75897917 -172.203125 217.47265625 C-172.21013931 216.57479904 -172.21715363 215.67694183 -172.22438049 214.75187683 C-172.24185032 211.85536665 -172.24823679 208.959061 -172.25 206.0625 C-172.25067474 205.07302368 -172.25134949 204.08354736 -172.25204468 203.06408691 C-172.23552949 187.82874677 -171.69482498 173.03107597 -169 158 C-168.83371094 157.03400879 -168.66742188 156.06801758 -168.49609375 155.07275391 C-159.40491658 103.51399447 -136.19385382 48.20182402 -93 16 C-88.77894647 13.1108566 -84.46227861 10.49799567 -80 8 C-79.04738281 7.45601562 -78.09476562 6.91203125 -77.11328125 6.3515625 C-54.17357104 -5.97892293 -24.63397019 -8.3412494 0 0 Z M122.90625 66.4765625 C117.40285467 73.00411497 112.40474975 79.97069425 107.46923828 86.93261719 C106.55290997 88.22199374 105.62137432 89.50085698 104.66748047 90.76269531 C102.50257738 93.55625227 102.50257738 93.55625227 102.26293945 96.92944336 C103.04399533 99.12359206 104.00148422 100.85369384 105.265625 102.80859375 C105.73621338 103.54360107 106.20680176 104.2786084 106.69165039 105.03588867 C107.20590576 105.82842041 107.72016113 106.62095215 108.25 107.4375 C109.35883403 109.1713885 110.4668813 110.90578034 111.57421875 112.640625 C112.14575684 113.53330078 112.71729492 114.42597656 113.30615234 115.34570312 C121.70416889 128.50558145 129.73859479 141.87854335 137.6875 155.3125 C143.57210609 165.25763137 149.48948242 175.16539322 155.68896484 184.91845703 C157.25367131 187.40275635 158.79292511 189.90210441 160.33203125 192.40234375 C166.99606598 203.20221674 173.81978112 213.86983374 180.9375 224.375 C181.62271729 225.39005615 182.30793457 226.4051123 183.01391602 227.45092773 C187.40163019 233.8742178 192.04710853 240.00270485 197 246 C197.79148437 246.96292969 198.58296875 247.92585937 199.3984375 248.91796875 C206.59132345 257.17699392 214.42438305 264.31851145 225.734375 265.3359375 C235.58895515 265.55641698 242.90099281 264.43202407 251.25 258.8125 C265.4489243 244.29087287 266.40173593 224.52951824 266.3125 205.3125 C266.31067719 204.49874908 266.30885437 203.68499817 266.30697632 202.84658813 C266.1170865 152.30187704 253.53732152 95.1874518 217 58 C216.31679688 57.30390625 215.63359375 56.6078125 214.9296875 55.890625 C202.68248505 44.23092673 187.38613567 37.59838066 170.47265625 37.7890625 C150.47329778 39.00387168 135.6635147 52.18092176 122.90625 66.4765625 Z M-69 65 C-69.59296875 65.50917969 -70.1859375 66.01835938 -70.796875 66.54296875 C-103.82119999 97.12978403 -117.45757481 151.99070038 -119.12451172 195.22973633 C-119.99433549 227.89215269 -119.99433549 227.89215269 -105 256 C-96.48833001 263.76844724 -88.19370084 265.75336624 -76.91015625 265.34375 C-62.1243315 264.04389727 -51.43647059 252.53877203 -42 242 C-40.04235457 239.61277329 -38.18592713 237.15962302 -36.34765625 234.6796875 C-35.83334045 233.98926865 -35.31902466 233.29884979 -34.78912354 232.58750916 C-29.00861563 224.75823802 -23.61279563 216.68088921 -18.25 208.5625 C-17.19757622 206.97630164 -16.14500245 205.39020279 -15.09228516 203.80419922 C-6.58161163 190.96182809 1.76243147 178.01928846 10 165 C12.35225547 161.29045129 14.70670025 157.58229877 17.0625 153.875 C17.62469238 152.98997803 18.18688477 152.10495605 18.76611328 151.19311523 C24.32079629 142.46534936 29.96417722 133.79591483 35.625 125.13671875 C36.18316406 124.27481934 36.74132812 123.41291992 37.31640625 122.52490234 C38.44976022 120.82520009 39.62572879 119.15324016 40.83984375 117.51025391 C41.40832031 116.72956543 41.97679687 115.94887695 42.5625 115.14453125 C43.33787109 114.1232312 43.33787109 114.1232312 44.12890625 113.08129883 C45.26671469 110.96049952 45.26671469 110.96049952 44.31591797 108.47314453 C43.12795772 106.24048455 41.9192659 104.28860279 40.3828125 102.28515625 C39.86420654 101.60573975 39.34560059 100.92632324 38.8112793 100.22631836 C38.25480713 99.5122583 37.69833496 98.79819824 37.125 98.0625 C36.54854736 97.31685791 35.97209473 96.57121582 35.37817383 95.80297852 C18.97094101 74.74572313 0.95671055 53.14685447 -27 49 C-43.40606342 47.39723668 -56.95523625 54.45058957 -69 65 Z " fill="#0076F0" transform="translate(172,4)"/>
<path d="M0 0 C20.46 0 40.92 0 62 0 C68.75146085 11.25243475 68.75146085 11.25243475 71.3046875 15.86328125 C71.87952881 16.89952637 72.45437012 17.93577148 73.04663086 19.00341797 C73.64999268 20.09541504 74.25335449 21.18741211 74.875 22.3125 C75.52925336 23.49372153 76.18363479 24.67487213 76.83813477 25.85595703 C78.89484062 29.56911971 80.94774301 33.28437707 83 37 C83.33122864 37.59951477 83.66245728 38.19902954 84.00372314 38.81671143 C87.99791156 46.04612617 91.9875449 53.2780463 95.9744873 60.51145935 C98.31666229 64.7607763 100.65987287 69.00952042 103.00390625 73.2578125 C103.33370483 73.85553467 103.66350342 74.45325684 104.0032959 75.0690918 C105.00217789 76.87940523 106.00108409 78.68970529 107 80.5 C110.67627472 87.16236328 114.35252122 93.8247406 118.02566528 100.48883057 C125.4366754 113.93435072 132.86138863 127.37187103 140.3293457 140.78588867 C143.70108593 146.84626447 147.05581109 152.91534304 150.390625 158.99609375 C151.12561518 160.33465511 151.86064091 161.67319695 152.59570312 163.01171875 C154.00398499 165.57631746 155.40830807 168.14303082 156.81054688 170.7109375 C157.7628418 172.44537109 157.7628418 172.44537109 158.734375 174.21484375 C159.29350586 175.23698975 159.85263672 176.25913574 160.42871094 177.31225586 C161.81878381 179.69002346 163.29351861 181.84246484 165 184 C165.57105469 182.89527344 166.14210938 181.79054687 166.73046875 180.65234375 C171.94770186 170.6197085 177.37193779 160.72924048 182.96948242 150.90405273 C186.90325344 143.98311556 190.72870698 137.01065679 194.5 130 C198.74384742 122.1138305 203.07064583 114.28349311 207.5 106.5 C212.56285695 97.60162221 217.48129942 88.63341555 222.34033203 79.62231445 C226.68853632 71.56086715 231.1140725 63.545996 235.57910156 55.54882812 C237.83604044 51.50029859 240.08323492 47.44636688 242.33203125 43.39331055 C245.55094032 37.59345593 248.77428158 31.79606983 252 26 C252.49965271 25.10217804 252.49965271 25.10217804 253.00939941 24.18621826 C255.29474927 20.08069649 257.5840468 15.97739766 259.875 11.875 C260.77653809 10.25646118 260.77653809 10.25646118 261.69628906 8.60522461 C262.52338379 7.12614624 262.52338379 7.12614624 263.3671875 5.6171875 C263.85300293 4.74690918 264.33881836 3.87663086 264.83935547 2.97998047 C266 1 266 1 267 0 C286.8 0 306.6 0 327 0 C327 101.31 327 202.62 327 307 C310.5 307 294 307 277 307 C276.505 193.15 276.505 193.15 276 77 C265.75904909 95.09574828 265.75904909 95.09574828 255.625 113.25 C254.35679502 115.53647175 253.08856512 117.82292968 251.8203125 120.109375 C250.87333496 121.81770508 250.87333496 121.81770508 249.90722656 123.56054688 C246.77506584 129.20902105 243.63728082 134.85436857 240.5 140.5 C239.24997235 142.74998464 237.99997237 144.99998465 236.75 147.25 C220.5 176.5 204.25 205.75 188 235 C172.16 235 156.32 235 140 235 C131.9272434 220.78094008 123.95132003 206.51627243 116.06559753 192.19328308 C115.72813004 191.58035904 115.39066254 190.967435 115.04296875 190.3359375 C114.70594437 189.72377884 114.36891998 189.11162018 114.02168274 188.48091125 C110.50912133 182.10366497 106.97524586 175.73830591 103.4375 169.375 C102.82277832 168.26930664 102.20805664 167.16361328 101.57470703 166.02441406 C100.33621177 163.79713851 99.09760525 161.56992482 97.85888672 159.34277344 C94.7374165 153.72953858 91.61889751 148.1146646 88.5 142.5 C87.88189453 141.38753906 87.26378906 140.27507812 86.62695312 139.12890625 C83.48825447 133.47990324 80.35058736 127.83033144 77.21484375 122.1796875 C76.58191406 121.03951172 75.94898438 119.89933594 75.296875 118.72460938 C74.13113256 116.62455866 72.96571683 114.52432652 71.80078125 112.42382812 C65.23441497 100.5967335 58.60981027 88.80323263 52 77 C51.67 152.9 51.34 228.8 51 307 C34.17 307 17.34 307 0 307 C0 205.69 0 104.38 0 0 Z " fill="#18272F" transform="translate(586,10)"/>
<path d="M0 0 C23.56319672 -0.48495683 47.49427343 5.81268243 65.0390625 22.12109375 C68.43849036 25.39844271 71.74645646 28.73441325 75.0390625 32.12109375 C75.3690625 23.54109375 75.6990625 14.96109375 76.0390625 6.12109375 C91.5490625 6.12109375 107.0590625 6.12109375 123.0390625 6.12109375 C123.0390625 81.69109375 123.0390625 157.26109375 123.0390625 235.12109375 C107.5290625 235.12109375 92.0190625 235.12109375 76.0390625 235.12109375 C75.7090625 225.55109375 75.3790625 215.98109375 75.0390625 206.12109375 C73.4303125 207.93609375 71.8215625 209.75109375 70.1640625 211.62109375 C55.62684605 227.57458033 36.70161468 237.93295717 15.0390625 240.12109375 C-0.63093554 240.84883035 -15.9887021 241.20095933 -30.9609375 236.12109375 C-31.61191406 235.90146973 -32.26289062 235.6818457 -32.93359375 235.45556641 C-60.77644626 225.83180158 -78.93306775 205.37779671 -91.67578125 179.66015625 C-94.66105952 173.14267851 -96.84964982 166.52763261 -98.7109375 159.62109375 C-99.00919434 158.51930786 -99.00919434 158.51930786 -99.31347656 157.39526367 C-102.41740765 145.16721267 -103.34193552 132.95389924 -103.2734375 120.37109375 C-103.27161469 119.67176727 -103.26979187 118.9724408 -103.26791382 118.25192261 C-103.21999355 107.30190644 -102.61713324 96.7775295 -99.9609375 86.12109375 C-99.71947998 85.09435547 -99.71947998 85.09435547 -99.47314453 84.046875 C-92.61330374 55.52680684 -76.06054814 29.77978229 -50.80078125 14.3046875 C-35.11316726 5.1785851 -18.09752419 0.74013621 0 0 Z M-36.9609375 66.12109375 C-39.65670621 69.62955744 -41.88157003 73.21948489 -43.9609375 77.12109375 C-44.41984375 77.95898438 -44.87875 78.796875 -45.3515625 79.66015625 C-56.02040825 100.9335776 -56.6633591 129.63264859 -49.34277344 152.01074219 C-46.45155673 160.53288751 -42.76995813 168.17122337 -36.9609375 175.12109375 C-36.26613281 175.96285156 -35.57132813 176.80460938 -34.85546875 177.671875 C-24.5782808 189.01637561 -9.52657525 195.56908887 5.6640625 196.4296875 C25.91438416 197.14592423 43.83410685 192.10065002 59.0390625 178.12109375 C68.51576247 169.03406072 75.66161922 158.97844743 75.97576427 145.49218845 C75.98628161 143.387181 75.96188747 141.28450479 75.93359375 139.1796875 C75.93577765 137.68001333 75.94019331 136.18034096 75.94670105 134.68067932 C75.95246126 131.55976452 75.9338253 128.4402717 75.89672852 125.31958008 C75.8512095 121.35301043 75.8638778 117.38918823 75.89453602 113.42256069 C75.91247327 110.33281339 75.90099674 107.24369166 75.88089561 104.15397835 C75.8744575 102.69300638 75.87636412 101.23196918 75.88739967 99.7710247 C75.97072337 83.82436132 69.67953684 73.50613802 59.08984375 62.00390625 C45.55869448 48.75626678 27.80637186 44.62097178 9.47070312 44.77124023 C-9.11786635 45.2219918 -24.51158628 52.41198675 -36.9609375 66.12109375 Z " fill="#18272F" transform="translate(1475.9609375,81.87890625)"/>
<path d="M0 0 C24.83881458 21.80172185 34.83075287 52.90352901 38.18359375 84.84375 C38.18359375 95.07375 38.18359375 105.30375 38.18359375 115.84375 C-16.92640625 115.84375 -72.03640625 115.84375 -128.81640625 115.84375 C-123.18525923 136.11587929 -116.69816928 154.00371626 -97.81640625 164.84375 C-76.73752907 176.46873702 -52.83401164 176.17352476 -30.13671875 169.8125 C-16.01795766 165.15865448 -4.7933098 157.65460885 6.18359375 147.84375 C9.49187328 151.07105766 12.53399108 154.37109483 15.43359375 157.96875 C16.20574219 158.92265625 16.97789062 159.8765625 17.7734375 160.859375 C18.56878906 161.84421875 19.36414062 162.8290625 20.18359375 163.84375 C21.78648653 165.80312614 23.39061402 167.761493 24.99609375 169.71875 C27.74742544 173.07647719 30.47698852 176.44984951 33.18359375 179.84375 C28.75158426 191.58185997 7.42198256 201.08165865 -3.44140625 206.03125 C-9.29473583 208.41372769 -15.25476512 210.31267385 -21.31640625 212.09375 C-22.56091553 212.46342896 -22.56091553 212.46342896 -23.83056641 212.84057617 C-36.53548218 216.40559279 -49.3173995 217.25348029 -62.44140625 217.21875 C-63.18386597 217.21853851 -63.92632568 217.21832703 -64.69128418 217.21810913 C-76.77234903 217.18387826 -88.16814509 216.27321612 -99.81640625 212.84375 C-101.04230469 212.493125 -102.26820312 212.1425 -103.53125 211.78125 C-117.67524066 207.19916979 -130.92126745 199.97231466 -141.81640625 189.84375 C-142.29916016 189.40724121 -142.78191406 188.97073242 -143.27929688 188.52099609 C-166.8696401 167.05802336 -178.21366456 136.27312361 -179.81640625 104.84375 C-181.15371277 71.61370923 -172.72337855 36.78037198 -149.75390625 11.84375 C-147.80836226 9.80830783 -145.82457675 7.81724807 -143.81640625 5.84375 C-143.05585937 5.08449219 -142.2953125 4.32523438 -141.51171875 3.54296875 C-104.40453566 -31.45739625 -38.65150311 -32.59584098 0 0 Z M-115.50390625 42.96875 C-122.97767908 53.05745989 -128.81640625 66.28050124 -128.81640625 78.84375 C-89.54640625 78.84375 -50.27640625 78.84375 -9.81640625 78.84375 C-12.55951864 59.64196326 -17.67984589 41.89250473 -33.69140625 29.64453125 C-61.16444659 11.43017485 -94.72547954 18.34074869 -115.50390625 42.96875 Z " fill="#18272F" transform="translate(1135.81640625,105.15625)"/>
<path d="M0 0 C16.17 0 32.34 0 49 0 C49 22.11 49 44.22 49 67 C71.77 67 94.54 67 118 67 C118 80.53 118 94.06 118 108 C95.23 108 72.46 108 49 108 C49.0967874 129.08657534 49.0967874 129.08657534 49.22207737 150.17292786 C49.27179213 157.71878256 49.31727365 165.26458173 49.34643555 172.81054688 C49.37203524 179.43074063 49.41305036 186.05072696 49.46318626 192.67078781 C49.47978399 195.18791267 49.49134218 197.70507631 49.49761391 200.22224808 C48.90236186 225.49517629 48.90236186 225.49517629 59.3125 247.75 C68.70153252 255.61058537 77.61465692 256.3080571 89.5625 256.1875 C90.74908203 256.18685547 91.93566406 256.18621094 93.15820312 256.18554688 C101.51823067 256.14467765 109.60607498 255.59956607 118 255 C118 268.53 118 282.06 118 296 C89.15280932 302.07309278 57.52344197 305.95204147 30.9375 290.18359375 C15.34108896 279.46106116 6.07624442 263.69304212 2.40710449 245.26525879 C2.20558777 244.14395569 2.20558777 244.14395569 2 243 C1.83246216 242.10390015 1.66492432 241.20780029 1.49230957 240.2845459 C-0.62737705 227.01658816 -0.25072022 213.68579473 -0.1953125 200.28515625 C-0.19157604 197.61616181 -0.18863348 194.94717815 -0.18673706 192.27818298 C-0.18056607 186.01002217 -0.16421582 179.74193266 -0.14403808 173.47380298 C-0.12154112 166.32728924 -0.11065127 159.18077175 -0.10064721 152.03423131 C-0.0798447 137.35611302 -0.04322458 122.67807095 0 108 C-14.85 108 -29.7 108 -45 108 C-45 94.47 -45 80.94 -45 67 C-30.15 67 -15.3 67 0 67 C0 44.89 0 22.78 0 0 Z " fill="#19272F" transform="translate(1233,21)"/>
</svg>
